<?xml version="1.0"?>
<svg xmlns="http://www.w3.org/2000/svg" version="1.0" width="512px" height="512px" viewBox="0 0 3029.000000 3029.000000" preserveAspectRatio="xMidYMid meet" class=""><g><g transform="translate(0.000000,3029.000000) scale(0.100000,-0.100000)" fill="#000000" stroke="none">
<path d="M14638 30279 c-3613 -119 -7016 -1504 -9703 -3948 -206 -187 -789 -770 -976 -976 -1707 -1877 -2897 -4093 -3508 -6530 -621 -2481 -599 -5145 65 -7615 496 -1849 1342 -3590 2489 -5125 982 -1314 2177 -2467 3527 -3403 2114 -1464 4560 -2361 7118 -2612 1072 -104 2208 -94 3275 31 5056 591 9485 3703 11770 8269 841 1679 1353 3469 1530 5345 78 833 85 1756 20 2610 -179 2336 -901 4598 -2109 6610 -516 858 -1101 1644 -1790 2405 -193 214 -815 835 -1021 1020 -1242 1116 -2571 1982 -4045 2635 -2081 922 -4349 1360 -6642 1284z m4604 -8558 c130 -23 256 -65 378 -126 335 -169 574 -486 629 -835 7 -40 11 -328 11 -760 l0 -696 783 -721 c430 -397 834 -774 897 -840 479 -490 758 -1096 820 -1778 15 -162 14 -7837 -1 -7890 -7 -25 -29 -58 -58 -86 -85 -86 138 -79 -2436 -79 -2571 0 -2349 -7 -2434 78 -28 29 -51 63 -59 88 -9 32 -12 310 -12 1173 l0 1132 -127 192 c-242 365 -379 664 -472 1032 -72 288 -96 513 -88 838 9 367 64 661 189 996 21 57 37 106 35 108 -2 1 -1343 -472 -2979 -1052 -2065 -732 -3007 -1061 -3079 -1076 -135 -29 -379 -32 -512 -6 -372 74 -697 297 -863 592 -20 36 -253 584 -518 1218 l-483 1152 -114 21 c-142 27 -247 62 -371 126 -331 169 -563 473 -623 817 -22 126 -22 5306 0 5432 84 484 491 864 1020 953 66 12 951 14 5217 15 5040 1 5138 1 5250 -18z" data-original="#000000" class="active-path" data-old_color="#00441b" fill="#00441b"/>
<path d="M8790 21259 c-213 -55 -389 -193 -479 -372 -77 -155 -71 97 -71 -2832 0 -2925 -6 -2676 69 -2830 88 -180 269 -320 485 -375 79 -20 98 -20 3895 -20 l3815 0 -530 533 c-546 548 -588 596 -666 752 -88 174 -122 325 -121 525 2 324 124 603 367 838 186 179 411 296 679 354 139 29 396 32 542 4 196 -36 371 -107 532 -215 63 -42 423 -367 1263 -1140 1097 -1009 1175 -1079 1185 -1058 7 15 10 881 10 2642 0 2513 -1 2623 -18 2685 -72 251 -275 443 -541 510 -79 20 -120 20 -5210 19 -5061 0 -5132 0 -5206 -20z m2015 -472 c117 -42 181 -81 266 -166 82 -82 127 -159 154 -266 23 -90 22 -1288 -1 -1379 -42 -164 -161 -303 -329 -387 -139 -69 -138 -69 -903 -69 -767 0 -759 -1 -911 72 -167 80 -301 253 -331 426 -7 46 -10 260 -8 692 l3 625 26 66 c63 162 160 269 310 343 157 76 141 75 939 73 l705 -2 80 -28z m4945 -542 l0 -345 -245 0 -245 0 0 345 0 345 245 0 245 0 0 -345z m1010 0 l0 -345 -250 0 -250 0 0 345 0 345 250 0 250 0 0 -345z m1000 0 l0 -345 -250 0 -250 0 0 345 0 345 250 0 250 0 0 -345z m1000 0 l0 -345 -250 0 -250 0 0 345 0 345 250 0 250 0 0 -345z m-8770 -2650 l0 -225 -500 0 -500 0 0 225 0 225 500 0 500 0 0 -225z m1500 0 l0 -225 -500 0 -500 0 0 225 0 225 500 0 500 0 0 -225z m1510 0 l0 -225 -500 0 -500 0 0 225 0 225 500 0 500 0 0 -225z m1500 0 l0 -225 -500 0 -500 0 0 225 0 225 500 0 500 0 0 -225z m-4510 -1385 l0 -230 -500 0 -500 0 0 230 0 230 500 0 500 0 0 -230z m4510 0 l0 -230 -500 0 -500 0 0 230 0 230 500 0 500 0 0 -230z" data-original="#000000" class="active-path" data-old_color="#00441b" fill="#00441b"/>
<path d="M9315 20341 c-69 -42 -70 -44 -73 -252 l-3 -189 250 0 251 0 0 -230 0 -230 -250 0 -250 0 0 -182 c0 -201 5 -218 66 -259 28 -18 59 -19 684 -19 632 0 656 1 687 20 61 37 68 64 68 260 l0 175 -252 3 -253 2 0 230 0 230 256 0 256 0 -4 178 c-3 199 -12 228 -78 263 -33 18 -70 19 -680 19 -610 0 -647 -1 -675 -19z" data-original="#000000" class="active-path" data-old_color="#00441b" fill="#00441b"/>
<path d="M20652 18280 c3 -8 196 -469 428 -1025 457 -1093 444 -1060 467 -1155 104 -438 -94 -910 -492 -1175 -104 -69 -190 -109 -382 -177 -84 -29 -152 -56 -150 -60 1 -3 208 -196 460 -428 l459 -423 -24 -22 c-68 -67 -322 -295 -328 -295 -3 0 -897 820 -1986 1821 -1088 1002 -2008 1846 -2043 1875 -81 67 -192 125 -306 160 -80 24 -106 27 -240 28 -159 1 -224 -11 -345 -60 -145 -59 -298 -183 -379 -308 -162 -248 -159 -556 8 -806 30 -44 386 -408 1106 -1130 585 -586 1071 -1081 1081 -1100 11 -22 18 -57 19 -95 0 -56 -5 -68 -63 -170 -259 -453 -376 -879 -375 -1375 0 -551 152 -1041 473 -1523 l104 -157 2063 0 2063 0 -3 2668 -3 2667 -22 115 c-94 483 -274 858 -592 1225 -41 48 -273 269 -515 492 -509 470 -490 453 -483 433z" data-original="#000000" class="active-path" data-old_color="#00441b" fill="#00441b"/>
<path d="M20258 16630 l-3 -1295 -26 -85 c-14 -47 -36 -109 -47 -137 -12 -29 -18 -53 -14 -53 28 1 514 185 558 212 132 79 222 176 284 303 72 148 87 317 41 462 -18 57 -750 1814 -777 1863 -11 21 -13 -183 -16 -1270z" data-original="#000000" class="active-path" data-old_color="#00441b" fill="#00441b"/>
<path d="M9403 14358 c3 -7 60 -143 127 -303 67 -159 124 -296 127 -302 3 -7 10 -13 17 -13 13 0 1685 591 1739 614 28 13 -98 14 -992 15 -815 1 -1022 -2 -1018 -11z" data-original="#000000" class="active-path" data-old_color="#00441b" fill="#00441b"/>
<path d="M11347 13840 c-819 -291 -1491 -531 -1494 -534 -7 -7 396 -975 443 -1066 89 -171 257 -303 456 -361 101 -29 270 -36 368 -15 58 12 6140 2158 6160 2173 2 2 -70 78 -160 168 l-165 165 -2060 -1 -2060 0 -1488 -529z" data-original="#000000" class="active-path" data-old_color="#00441b" fill="#00441b"/>
<path d="M18260 9295 l0 -925 2005 0 2005 0 0 925 0 925 -2005 0 -2005 0 0 -925z m1000 230 l0 -225 -250 0 -250 0 0 225 0 225 250 0 250 0 0 -225z" data-original="#000000" class="active-path" data-old_color="#00441b" fill="#00441b"/>
</g></g> </svg>
